# xmcd
#
# Track frame offsets:
#	150
#	11374
#	25087
#	36854
#	46445
#	60806
#	74818
#	84662
#	102213
#	113183
#	128198
#	144412
#	163137
#	178484
#
# Disc length: 2501 seconds
#
# Revision: 0
# Processed by: cddbd v1.5.2PL0 Copyright (c) Steve Scherf et al.
# Submitted via: FairStars CD Ripper 2.00
#
DISCID=c009c30e
DTITLE=Woody Holler - Jazz from the Saddle
DYEAR=2014
DGENRE=Country
TTITLE0=Champion the Wonder Horse
TTITLE1=Granada
TTITLE2=Jazz from the Saddle
TTITLE3=Chili Sauce
TTITLE4=O Sole Mio
TTITLE5=Boney Bones
TTITLE6=Roly Poly
TTITLE7=Amapola
TTITLE8=May
TTITLE9=Yodeling Ranger
TTITLE10=Ghost Riders
TTITLE11=If I Could Only Stay Asleep
TTITLE12=My Little Yoho Lady
TTITLE13=Red River Valley
EXTD=
EXTT0=
EXTT1=
EXTT2=
EXTT3=
EXTT4=
EXTT5=
EXTT6=
EXTT7=
EXTT8=
EXTT9=
EXTT10=
EXTT11=
EXTT12=
EXTT13=
PLAYORDER=
